# xmcd
#
# Track frame offsets:
#	150
#	12748
#	30123
#	48477
#	69799
#	87144
#	102340
#	118837
#	133945
#	149703
#
# Disc length: 2175 seconds
#
# Revision: 0
# Processed by: cddbd v1.5.2PL0 Copyright (c) Steve Scherf et al.
# Submitted via: dBpowerAMP V4.0
#
DISCID=8a087d0a
DTITLE=Dolly Parton - 9 to 5 and Odd Jobs
DYEAR=1999
DGENRE=Country
TTITLE0=9 To 5
TTITLE1=Hush-A-Bye Hard Times
TTITLE2=The House Of The Rising Sun
TTITLE3=Deportee (Plane Wreck At Los Gatos)
TTITLE4=Sing For The Common Man
TTITLE5=Working Girl
TTITLE6=Detroit City
TTITLE7=But You Know I Love You
TTITLE8=Dark As A Dungeon
TTITLE9=Poor Folks Town
EXTD=Dolly Parton - 9 to 5 and Odd Jobs
EXTT0=
EXTT1=
EXTT2=
EXTT3=
EXTT4=
EXTT5=
EXTT6=
EXTT7=
EXTT8=
EXTT9=
PLAYORDER=
